<svg id="Layer_1" data-name="Layer 1" xmlns="http://www.w3.org/2000/svg" width="125" height="55" viewBox="0 0 125 55"><defs><style>.cls-1{fill:#ffd60a;}</style></defs><path class="cls-1" d="M8.49,13.1A20.38,20.38,0,1,0,43.28,27.5V7.11H22.89A20.36,20.36,0,0,0,8.49,13.1ZM37.92,27.5a15,15,0,1,1-15-15h15Z"/><path class="cls-1" d="M13.69,27.5a9.2,9.2,0,0,0,18.4,0V18.3h-9.2a9.22,9.22,0,0,0-9.2,9.2Z"/><polygon class="cls-1" points="70.11 38.48 84.25 38.48 84.25 24.34 70.11 38.48"/><polygon class="cls-1" points="114.36 19.98 114.36 15.26 106.1 15.26 106.1 20.01 110.23 24.14 114.36 19.98"/><polygon class="cls-1" points="88.2 7.11 88.2 7.11 88.19 7.11 88.19 7.12 47.39 47.89 55.14 47.89 88.19 14.83 88.19 42.41 66.14 42.41 60.67 47.89 88.19 47.87 88.19 47.89 93.65 47.89 93.65 7.13 88.2 7.11 88.2 7.11"/><polygon class="cls-1" points="97.97 47.89 103.43 47.89 103.43 32.55 97.97 27.09 97.97 47.89"/><polygon class="cls-1" points="52.85 12.6 60.72 12.6 60.72 31.7 66.18 26.24 66.18 12.6 74.03 12.6 74.03 18.4 79.49 12.94 79.49 12.6 79.49 7.12 79.49 7.11 74.03 7.11 74.03 7.11 66.18 7.11 66.18 7.11 60.72 7.11 60.72 7.12 52.85 7.12 52.85 7.11 47.39 7.11 47.39 7.12 47.39 12.6 47.39 45.06 52.85 39.59 52.85 12.6"/><polygon class="cls-1" points="117.02 7.12 110 7.12 110 12.6 117.02 12.6 117.02 21.09 110.23 27.88 103.44 21.1 103.44 7.12 97.96 7.12 97.96 23.36 97.96 23.36 122.49 47.89 122.49 40.14 117.03 34.68 114.1 31.75 122.49 23.36 122.5 23.36 122.5 12.6 122.5 7.12 117.02 7.12"/></svg>